PathFileType	4	(X/Y/Z)	C:/Users/beibeiliu/ov580/test_trc/User3\sequence.34_training_dense_left.trc
DataRate	CameraRate	NumFrames	NumMarkers	Units	OrigDataRate	OrigDataStartFrame	OrigNumFrames
120	120	19	19	mm	120	1	83
Frame#	Time	ThumbCMC			ThumbMCP			ThumbIP			ThumbTip			IndexMCP			IndexPIP			IndexTip			MiddleMCP			MiddlePIP			MiddleTip			RingMCP			RingPIP			RingTip			PinkyMCP			PinkyPIP			PinkyTip			BackHand1			BackHand2			BackHand3	
		X0	Y0	Z0	X1	Y1	Z1	X2	Y2	Z2	X3	Y3	Z3	X4	Y4	Z4	X5	Y5	Z5	X6	Y6	Z6	X7	Y7	Z7	X8	Y8	Z8	X9	Y9	Z9	X10	Y10	Z10	X11	Y11	Z11	X12	Y12	Z12	X13	Y13	Z13	X14	Y14	Z14	X15	Y15	Z15	X16	Y16	Z16	X17	Y17	Z17	X18	Y18	Z18	
0	0	-123.931	-4.69604	8.69703	-107.901	-5.84688	-15.3565	-91.3863	-1.87664	-40.7843	-80.5131	-4.55814	-64.1499	-158.004	-14.2252	-63.2571	-152.657	-16.7406	-91.4883	-144.176	-30.1679	-120.002	-178.909	-26.5946	-65.0899	-180.467	-35.0177	-94.6193	-173.563	-54.7075	-121.697	-189.451	-41.5927	-55.3933	-193.802	-50.0291	-77.5838	-190.912	-68.1641	-100.573	-199.163	-59.7862	-34.5399	-202.656	-69.0413	-53.021	-198.1	-82.0193	-76.1285	-188.886	-25.9719	-5.85745	-185.26	-21.2893	28.4985	-163.07	-3.81389	2.41889	
1	0.00833333	-114.343	-14.302	7.41409	-95.3261	-16.96	-14.5419	-81.5138	-20.8336	-37.9114	-65.9427	-25.0782	-59.3859	-144.604	-13.546	-66.0995	-140.059	-17.5873	-96.23	-135.034	-30.2591	-121.849	-167.107	-19.3016	-70.4802	-168.804	-24.9342	-95.1853	-168.289	-44.9685	-125.51	-186.354	-31.9255	-56.1489	-186.934	-37.5806	-81.6528	-189.03	-57.0357	-109.284	-194.556	-45.4943	-35.7276	-203.069	-56.2635	-62.4209	-204.108	-68.3388	-79.8657	-181.212	-17.7515	-5.41867	-177.41	-11.2534	22.0867	-148.929	-2.64566	-1.33037	
2	0.0166667	-109.641	-16.8265	9.6054	-91.5966	-21.2212	-10.8142	-72.0574	-25.5684	-39.1242	-62.5106	-32.2837	-53.4729	-133.054	-12.3906	-70.5304	-133.281	-16.8757	-94.2989	-125.723	-25.5919	-119.19	-163.114	-16.5685	-68.0964	-163.619	-22.4602	-97.201	-162.15	-38.3102	-126.28	-176.587	-25.653	-56.8158	-183.28	-34.46	-87.1423	-187.558	-50.678	-109.878	-193.882	-38.7323	-38.9087	-201.357	-48.7629	-62.1225	-201.48	-61.7259	-81.1764	-177.1	-12.5403	-7.80428	-171.512	-8.26797	19.9801	-143.664	-2.05487	0.670674	
3	0.025	-106.116	-14.5345	4.51645	-91.0624	-20.6094	-14.1011	-72.9413	-25.2421	-37.4761	-60.6291	-31.5401	-52.1477	-134.174	-10.9569	-70.0922	-127.691	-13.8474	-98.391	-129.447	-24.1723	-118.453	-159.266	-13.5863	-67.7309	-162.974	-20.2239	-99.914	-163.881	-36.5198	-127.143	-175.5	-22.5539	-60.3877	-182.876	-30.5085	-86.8085	-184.673	-42.911	-107.639	-188.309	-35.4887	-39.3823	-197.102	-42.2208	-63.9606	-202.787	-55.4332	-83.6245	-174.335	-10.9257	-11.8759	-174.448	-6.65218	18.5169	-141.428	0.230393	-3.12059	
4	0.0333333	-110.484	-15.9485	8.51937	-90.1913	-20.116	-15.7539	-70.892	-24.4168	-35.8658	-58.7389	-31.1306	-54.0864	-131.354	-8.75135	-66.9016	-129.163	-11.5003	-93.6085	-124.836	-21.1223	-118.892	-158.303	-10.5752	-73.7268	-160.511	-19.2316	-102.489	-161.798	-33.0312	-126.815	-179.955	-22.9627	-59.1014	-182.265	-28.298	-88.8073	-186.914	-44.2077	-111.21	-194.396	-34.8395	-41.445	-196.229	-39.52	-63.1207	-203.526	-52.5418	-84.6077	-175.581	-8.13477	-11.3848	-169.595	-3.65151	16.0834	-142.062	-0.149949	-3.02644	
5	0.0416667	-110.507	-15.1432	4.81629	-91.69	-19.7801	-14.4847	-73.8517	-24.8709	-39.3774	-59.3877	-31.7896	-55.1234	-130.053	-6.54932	-65.5155	-131.323	-11.2514	-97.0187	-125.066	-19.4945	-118.413	-161.579	-9.14564	-72.0616	-160.924	-14.2567	-99.8882	-164.783	-31.0074	-126.995	-180.626	-18.8474	-59.3292	-185.144	-25.0109	-88.143	-188.615	-38.4261	-108.819	-192.85	-28.886	-41.8625	-197.088	-34.2314	-62.0984	-203.353	-49.3399	-83.8617	-171.771	-4.43781	-8.20971	-171.501	-2.38681	18.7574	-138.448	2.41486	-1.54	
6	0.05	-108.444	-12.72	6.38489	-89.5135	-18.5163	-13.9316	-75.5313	-25.92	-33.9352	-62.8013	-31.4198	-53.0192	-132.752	-2.62284	-69.4998	-125.916	-5.63981	-92.101	-125.407	-15.3996	-117.549	-160.925	-3.65901	-72.0533	-158.471	-7.81312	-97.4395	-160.77	-25.1328	-129.245	-174.486	-11.9753	-58.0897	-181.696	-17.7692	-86.2745	-182.739	-33.3526	-113.825	-194.456	-24.1708	-43.1541	-198.009	-31.7472	-68.6522	-200.281	-45.4638	-87.1682	-170.018	-1.98903	-7.56149	-172.898	0.847276	21.163	-141.34	6.57662	1.56733	
7	0.0583333	-110.669	-4.43711	12.2195	-92.1878	-9.37795	-10.2926	-73.2041	-11.3778	-36.7623	-60.2354	-16.6389	-52.1345	-132.687	6.30452	-67.2713	-125.173	1.8918	-95.866	-124.502	-7.39494	-116.899	-159.089	1.40468	-71.917	-157.877	-4.16579	-98.3419	-151.367	-24.4827	-130.529	-173.24	-9.13042	-60.3484	-179.895	-18.3773	-87.9136	-176.769	-34.6501	-110.457	-191.855	-23.9833	-48.0305	-191.669	-32.3824	-68.0059	-187.759	-52.0104	-90.0145	-177.588	-0.948898	-7.36416	-176.268	1.53253	19.0729	-142.584	13.4967	1.54278	
8	0.0666667	-116.018	8.46899	9.38396	-97.6896	8.19734	-13.5467	-81.8178	8.99697	-35.9254	-66.9666	8.33623	-57.4587	-138.642	11.8884	-65.1202	-130.57	8.15382	-96.7528	-118.178	-1.76019	-119.516	-160.982	-0.768344	-69.2041	-158.235	-11.0173	-101.867	-143.544	-28.3367	-125.854	-172.595	-17.872	-62.9358	-171.307	-28.9967	-88.4486	-156.337	-45.8549	-110.375	-183.385	-37.5722	-44.895	-178.583	-46.2503	-67.635	-167.163	-64.7293	-86.7653	-177.773	-7.60909	-10.1279	-180.201	-6.75655	21.2828	-152.306	13.6218	2.33159	
9	0.075	-126.941	16.705	9.22957	-105.486	25.2398	-15.0194	-90.3307	30.762	-36.3657	-79.332	26.8257	-56.6401	-146.834	10.9012	-68.0509	-140.848	6.61617	-93.8319	-125.45	-1.25698	-117.747	-162.853	-8.11369	-72.6732	-154.073	-15.2652	-101.129	-132.272	-31.5179	-121.783	-166.298	-27.1739	-64.5772	-161.79	-42.1544	-86.5099	-139.074	-54.9643	-104.379	-168.484	-47.7367	-43.8887	-159.668	-62.0827	-67.3787	-141.589	-72.2038	-80.9685	-179.91	-21.0102	-9.64829	-181.27	-17.5499	16.9147	-161.846	11.5927	1.70488	
10	0.0833333	-140.153	21.3326	3.7591	-123.71	30.5699	-18.8465	-110.271	38.9027	-43.7583	-98.2705	42.1779	-64.9001	-157.553	-0.521695	-70.7513	-147.734	0.4112	-96.7018	-127.95	-7.3691	-118.854	-165.064	-23.0222	-74.7162	-152.589	-27.6686	-99.6101	-124.425	-39.378	-117.143	-161.654	-46.6136	-60.654	-149.635	-54.335	-84.5249	-121.383	-59.2574	-100.785	-156.583	-59.6786	-42.4573	-142.994	-71.1324	-64.2396	-120.463	-74.8436	-75.3002	-177.153	-35.1501	-8.48863	-177.774	-30.8036	16.7072	-172.711	0.0608699	-0.512397	
11	0.0916667	-152.663	15.009	4.2673	-141.758	32.877	-21.687	-132.496	41.5404	-48.1075	-122.521	41.5505	-68.5727	-165.808	-11.9011	-72.2393	-153.615	-12.0238	-99.499	-134.404	-14.1647	-115.514	-165.391	-35.9855	-71.2217	-148.643	-41.0878	-99.5159	-114.034	-39.7989	-114.065	-155.318	-55.3877	-57.3281	-139.962	-58.7212	-82.0325	-112.066	-60.4064	-94.0122	-145.872	-68.1533	-45.2913	-130.779	-74.1379	-59.3268	-103.118	-73.6236	-71.0187	-175.2	-47.8742	-8.52621	-175.427	-43.8618	20.9988	-177.499	-9.3347	-2.78408	
12	0.1	-157.903	9.74513	-0.307496	-146.191	22.794	-23.4531	-138.62	38.0085	-49.5124	-130.495	42.1097	-70.8124	-167.48	-18.0109	-73.2803	-154.831	-15.881	-98.8391	-133.58	-16.2537	-113.185	-163.455	-40.6277	-73.0245	-142.87	-44.3571	-98.503	-111.622	-40.4466	-107.677	-151.382	-61.9709	-57.7815	-132.309	-60.3205	-82.7099	-104.15	-57.2787	-90.2149	-140.741	-74.2083	-38.9659	-124.224	-77.4317	-56.6	-97.6758	-70.0668	-70.1603	-172.174	-49.8241	-9.90633	-173.155	-46.1671	23.5827	-178.606	-17.2466	0.552945	
13	0.108333	-152.478	11.3033	4.66749	-141.641	25.17	-23.5715	-133.6	35.109	-50.069	-123.556	38.7484	-70.7246	-164.568	-20.2496	-67.9992	-152.373	-17.7242	-95.3542	-123.454	-15.7892	-110.965	-160.749	-41.1722	-73.8328	-139.044	-40.4843	-97.0468	-106.169	-35.6285	-101.608	-149.766	-59.134	-60.1627	-131.151	-61.3208	-78.6177	-101.408	-54.9047	-85.2607	-140.475	-72.4231	-44.515	-118.295	-75.6037	-59.4693	-96.6421	-66.8877	-67.8845	-170.7	-50.7338	-9.07598	-173.593	-47.38	21.7823	-178.69	-17.0454	3.73685	
14	0.116667	-150.093	12.5414	5.21321	-137.363	23.8412	-18.7527	-127.78	33.979	-46.2471	-118.517	34.3297	-67.7659	-160.495	-19.8497	-69.7266	-145.587	-18.6554	-94.2931	-117.356	-15.7097	-105.905	-157.984	-37.3053	-69.9952	-135.051	-37.1945	-94.2236	-94.8785	-34.4903	-92.0972	-147.788	-57.1156	-58.7635	-125.116	-59.454	-78.1017	-97.5075	-51.8251	-79.3214	-137.998	-75.3315	-42.9908	-120.141	-76.4735	-57.0231	-90.8095	-65.0701	-63.9444	-170.151	-53.5186	-4.77163	-169.716	-46.0296	21.768	-175.263	-17.893	2.33047	
15	0.125	-148.35	11.2156	5.32597	-136.715	20.8453	-21.6399	-128.704	31.11	-50.9991	-117.642	33.0566	-67.5322	-160.049	-17.7522	-68.2827	-143.285	-15.6367	-94.5008	-111.451	-18.2376	-103.956	-156.612	-40.4159	-68.4701	-129.368	-36.3584	-93.7262	-95.0455	-33.2698	-88.5923	-147.538	-58.4919	-56.637	-124.688	-58.0641	-76.0493	-93.581	-52.2301	-73.585	-138.454	-75.7913	-41.5585	-119.413	-73.5246	-57.6365	-92.8606	-61.2531	-60.9354	-169.248	-51.6166	-7.7123	-170.089	-46.6798	23.0793	-176.476	-16.5458	-0.0179996	
16	0.133333	-149.07	10.5606	7.98044	-137.963	20.6614	-23.5814	-129.574	27.1007	-47.837	-120.495	27.0827	-72.3092	-159.927	-19.4121	-65.121	-138.585	-20.3021	-92.468	-111.421	-17.8811	-99.6172	-154.985	-42.2243	-65.6879	-128.587	-41.024	-89.7804	-93.6248	-35.0321	-82.9427	-145.867	-55.975	-57.2065	-119.756	-59.9564	-74.0687	-88.0554	-49.8387	-67.2201	-137.706	-74.7722	-41.7588	-118.567	-74.2185	-55.7288	-93.733	-61.5112	-55.8044	-169.912	-52.8922	-2.26859	-171.765	-47.6457	22.4384	-176.02	-19.7856	1.15514	
17	0.141667	-148.767	10.769	7.62675	-137.362	18.7537	-17.2302	-129.644	25.4988	-45.5029	-120.686	25.076	-70.1776	-158.706	-16.6627	-63.8339	-135.747	-19.961	-89.9753	-108.388	-16.4052	-94.4617	-151.566	-41.435	-68.5777	-126.641	-38.0903	-86.8089	-87.7734	-33.9946	-74.8664	-143.489	-59.4122	-55.6273	-119.169	-60.0281	-71.0743	-89.4074	-44.6516	-63.1945	-138.081	-73.044	-38.4192	-113.416	-73.2672	-54.4468	-92.6187	-61.2618	-52.4014	-169.567	-52.3465	-3.92688	-169.321	-50.7231	24.2587	-174.108	-21.6121	5.04045	
18	0.15	-146.923	11.8818	7.8965	-136.9	18.4112	-15.8561	-129.573	24.8706	-49.4856	-121.438	17.1524	-68.5995	-155.431	-16.2426	-61.5738	-134.344	-16.0138	-88.1832	-103.305	-16.3102	-89.3859	-151.112	-38.6563	-64.8311	-119.345	-39.2918	-84.3589	-89.171	-33.2309	-72.3603	-142.565	-57.0988	-52.681	-113.41	-58.4556	-68.4115	-84.283	-43.6753	-56.2989	-135.67	-72.2864	-37.2952	-112.328	-68.7711	-54.0646	-91.139	-56.9152	-51.0189	-167.165	-49.5555	-1.11397	-168.346	-48.9063	28.5784	-169.492	-20.1951	7.57224	
